<?xml version="1.0" encoding="utf-8"?>
<!-- Generator: Adobe Illustrator 13.0.0, SVG Export Plug-In . SVG Version: 6.00 Build 14948)  -->
<!DOCTYPE svg PUBLIC "-//W3C//DTD SVG 1.1//EN" "http://www.w3.org/Graphics/SVG/1.1/DTD/svg11.dtd">
<svg version="1.1" id="Layer_1" xmlns="http://www.w3.org/2000/svg" xmlns:xlink="http://www.w3.org/1999/xlink" x="0px" y="0px"
	 width="24px" height="24px" viewBox="0 0 24 24" enable-background="new 0 0 24 24" xml:space="preserve">
<path d="M16.808,13.329c0.413-0.413,0.725-0.88,0.931-1.399c0.207-0.521,0.311-1.05,0.311-1.59s-0.104-1.073-0.311-1.6
	c-0.206-0.526-0.518-0.997-0.931-1.41s-0.88-0.72-1.398-0.92c-0.521-0.2-1.054-0.3-1.602-0.3c-0.547,0-1.079,0.1-1.6,0.3
	c-0.521,0.2-0.987,0.507-1.399,0.92c-0.414,0.414-0.724,0.884-0.931,1.41c-0.207,0.527-0.31,1.06-0.31,1.6s0.103,1.07,0.31,1.59
	c0.207,0.521,0.517,0.986,0.931,1.399c0.412,0.413,0.88,0.724,1.399,0.931c0.52,0.206,1.053,0.311,1.6,0.311
	c0.548,0,1.08-0.104,1.602-0.311C15.928,14.053,16.395,13.743,16.808,13.329z M19.208,4.929c0.746,0.747,1.307,1.59,1.68,2.53
	s0.561,1.896,0.561,2.87c0,0.973-0.188,1.93-0.561,2.87c-0.373,0.939-0.934,1.783-1.68,2.529c-0.601,0.601-1.267,1.08-2,1.439
	c-0.733,0.36-1.493,0.601-2.28,0.721s-1.576,0.113-2.37-0.021c-0.793-0.133-1.55-0.387-2.27-0.76l-3.44,3.439
	c-0.2,0.199-0.42,0.346-0.66,0.439c-0.24,0.094-0.49,0.14-0.75,0.14c-0.26,0-0.51-0.046-0.75-0.14c-0.24-0.094-0.46-0.24-0.66-0.439
	c-0.2-0.2-0.347-0.421-0.44-0.66c-0.093-0.239-0.14-0.489-0.14-0.75s0.047-0.51,0.14-0.75c0.093-0.239,0.24-0.46,0.44-0.66
	l3.32-3.319c-0.467-0.733-0.793-1.521-0.98-2.359c-0.187-0.84-0.237-1.681-0.15-2.521c0.086-0.84,0.313-1.656,0.68-2.45
	c0.367-0.794,0.87-1.51,1.51-2.15c0.747-0.733,1.59-1.287,2.529-1.66c0.94-0.374,1.896-0.56,2.87-0.56
	c0.975,0,1.931,0.187,2.87,0.56C17.618,3.643,18.461,4.196,19.208,4.929z"/>
</svg>
