<?xml version="1.0" encoding="utf-8"?>
<!-- Generator: Adobe Illustrator 13.0.0, SVG Export Plug-In . SVG Version: 6.00 Build 14948)  -->
<!DOCTYPE svg PUBLIC "-//W3C//DTD SVG 1.1//EN" "http://www.w3.org/Graphics/SVG/1.1/DTD/svg11.dtd">
<svg version="1.1" id="Layer_1" xmlns="http://www.w3.org/2000/svg" xmlns:xlink="http://www.w3.org/1999/xlink" x="0px" y="0px"
	 width="24px" height="24px" viewBox="0 0 24 24" enable-background="new 0 0 24 24" xml:space="preserve">
<path d="M7.596,12.65c-0.176,0.193-0.351,0.389-0.535,0.574c-0.13,0.131-0.274,0.242-0.407,0.369L3,17.25V21h3.75L17.811,9.93
	l-3.75-3.75L7.596,12.65z"/>
<path d="M20.71,5.63l-2.34-2.34C18,2.9,17.35,2.9,16.96,3.29l-1.84,1.83l3.75,3.75l1.84-1.83C21.1,6.65,21.1,6,20.71,5.63z"/>
<rect x="-31" y="-19" fill="#FFFFFF" width="15.75" height="4.25"/>
<rect x="-19.125" y="-17.5" fill="#FFFFFF" width="10.25" height="3.5"/>
<rect x="-35.625" y="-17.875" fill="#FFFFFF" width="10.25" height="2"/>
<polygon fill="#FFFFFF" points="6.919,15.366 13.055,9.383 14.599,10.868 8.463,16.858 "/>
</svg>
